<svg height="512" width="512" xmlns="http://www.w3.org/2000/svg"><style/><path d="M239 247H51a8 8 0 0 1-8-8V51a8 8 0 0 1 8-8h188a8 8 0 0 1 8 8v188a8 8 0 0 1-8 8zM59 231h172V59H59v172zm402 16H273a8 8 0 0 1-8-8V51a8 8 0 0 1 8-8h188a8 8 0 0 1 8 8v188a8 8 0 0 1-8 8zm-180-16h172V59H281v172zm-42 238H51a8 8 0 0 1-8-8V273a8 8 0 0 1 8-8h188a8 8 0 0 1 8 8v188a8 8 0 0 1-8 8zM59 453h172V281H59v172zm402 16H273a8 8 0 0 1-8-8V273a8 8 0 0 1 8-8h188a8 8 0 0 1 8 8v188a8 8 0 0 1-8 8zm-180-16h172V281H281v172z" id="layer_copy"/></svg>